PathFileType	4	(X/Y/Z)	RBDS06static.trc
DataRate	CameraRate	NumFrames	NumMarkers	Units	OrigDataRate	OrigDataStartFrame	OrigNumFrames
150.000000	150.000000	4	48	mm	150.000000	18	150
Frame#	Time	L.Ankle			L.Ankle.Medial			L.ASIS			L.GTR			L.Heel.Bottom			L.Heel.Lateral			L.Heel.Top			L.HF			L.Iliac.Crest			L.Knee			L.Knee.Medial			L.MT1			L.MT2			L.MT5			L.PSIS			L.Shank.Bottom.Lateral			L.Shank.Bottom.Medial			L.Shank.Top.Lateral			L.Shank.Top.Medial			L.Thigh.Bottom.Lateral			L.Thigh.Bottom.Medial			L.Thigh.Top.Lateral			L.Thigh.Top.Medial			L.TT			R.Ankle			R.Ankle.Medial			R.ASIS			R.GTR			R.Heel.Bottom			R.Heel.Lateral			R.Heel.Top			R.HF			R.Iliac.Crest			R.Knee			R.Knee.Medial			R.MT1			R.MT2			R.MT5			R.PSIS			R.Shank.Bottom.Lateral			R.Shank.Bottom.Medial			R.Shank.Top.Lateral			R.Shank.Top.Medial			R.Thigh.Bottom.Lateral			R.Thigh.Bottom.Medial			R.Thigh.Top.Lateral			R.Thigh.Top.Medial			R.TT			
		X1	Y1	Z1	X2	Y2	Z2	X3	Y3	Z3	X4	Y4	Z4	X5	Y5	Z5	X6	Y6	Z6	X7	Y7	Z7	X8	Y8	Z8	X9	Y9	Z9	X10	Y10	Z10	X11	Y11	Z11	X12	Y12	Z12	X13	Y13	Z13	X14	Y14	Z14	X15	Y15	Z15	X16	Y16	Z16	X17	Y17	Z17	X18	Y18	Z18	X19	Y19	Z19	X20	Y20	Z20	X21	Y21	Z21	X22	Y22	Z22	X23	Y23	Z23	X24	Y24	Z24	X25	Y25	Z25	X26	Y26	Z26	X27	Y27	Z27	X28	Y28	Z28	X29	Y29	Z29	X30	Y30	Z30	X31	Y31	Z31	X32	Y32	Z32	X33	Y33	Z33	X34	Y34	Z34	X35	Y35	Z35	X36	Y36	Z36	X37	Y37	Z37	X38	Y38	Z38	X39	Y39	Z39	X40	Y40	Z40	X41	Y41	Z41	X42	Y42	Z42	X43	Y43	Z43	X44	Y44	Z44	X45	Y45	Z45	X46	Y46	Z46	X47	Y47	Z47	X48	Y48	Z48	

19	0.12	708.7998046875	108.7508316040039	1042.802368164063	730.1536254882813	120.9878234863281	1128.532104492188	853.7268676757813	1036.700561523438	1105.4453125	764.5257568359375	948.616943359375	1048.916381835938	638.0560913085938	43.15262603759766	1078.495239257813	672.590087890625	64.72552490234375	1038.630981445313	649.47509765625	93.05631256103516	1082.029663085938	717.847900390625	487.0600891113281	1038.735595703125	763.2075805664063	1106.896850585938	1065.795776367188	724.3485107421875	557.9856567382813	1042.735595703125	716.8883666992188	535.5157470703125	1174.78857421875	864.6502075195313	63.83481216430664	1122.559936523438	878.8292236328125	65.25031280517578	1077.6796875	831.7244873046875	49.60094833374023	1012.383544921875	684.3372802734375	1074.735961914063	1177.464965820313	699.55859375	194.0469512939453	1038.504516601563	660.558349609375	192.2588043212891	1076.317749023438	689.1900634765625	273.3166809082031	1030.781982421875	652.10546875	272.9146728515625	1069.524291992188	727.8604736328125	640.3921508789063	1033.061401367188	670.482177734375	635.5655517578125	1077.969116210938	713.9015502929688	750.2858276367188	1032.811401367188	664.6558837890625	746.1268920898438	1080.406127929688	776.2232666015625	456.5713500976563	1092.330444335938	700.803955078125	115.7714767456055	1412.716552734375	723.9432373046875	122.5597915649414	1325.013793945313	853.7732543945313	1036.563720703125	1340.776245117188	775.235595703125	940.6343383789063	1392.621337890625	631.7012329101563	42.5198860168457	1368.853515625	661.0236206054688	65.40221405029297	1410.494384765625	641.4202270507813	91.91368103027344	1367.585327148438	721.6001586914063	491.3597717285156	1402.756591796875	784.486572265625	1094.94091796875	1386.011108398438	730.2551879882813	550.89501953125	1399.411254882813	729.3157958984375	533.8074951171875	1270.120971679688	857.3968505859375	66.29817962646484	1331.524169921875	859.6812133789063	72.35662078857422	1370.785400390625	819.3069458007813	49.22507858276367	1443.64013671875	687.7252197265625	1072.904663085938	1275.139404296875	685.0699462890625	206.7823638916016	1412.787475585938	650.6278076171875	206.9344940185547	1374.50341796875	677.1519775390625	291.24169921875	1417.25146484375	642.3798217773438	287.2857666015625	1376.685424804688	744.2945556640625	647.348388671875	1413.449829101563	679.6353149414063	650.155029296875	1377.006713867188	742.3826904296875	758.0654907226563	1420.026489257813	682.8471069335938	760.434326171875	1382.105712890625	776.1158447265625	457.5511169433594	1356.406982421875	
20	0.1266666666666667	708.78759765625	108.7525939941406	1042.80517578125	730.1543579101563	120.994140625	1128.534912109375	853.7696533203125	1036.6884765625	1105.463745117188	764.580078125	948.6072387695313	1048.924438476563	638.0607299804688	43.15966796875	1078.490356445313	672.587890625	64.73178100585938	1038.630249023438	649.4730834960938	93.06883239746094	1082.023071289063	717.8627319335938	487.0610046386719	1038.744995117188	763.2631225585938	1106.888916015625	1065.825317382813	724.3806762695313	557.98486328125	1042.753051757813	716.9109497070313	535.5062866210938	1174.803100585938	864.6494140625	63.818115234375	1122.564453125	878.8347778320313	65.25086212158203	1077.6787109375	831.716796875	49.59946441650391	1012.386657714844	684.3911743164063	1074.73828125	1177.473510742188	699.56982421875	194.0527954101563	1038.511108398438	660.5686645507813	192.2547760009766	1076.313720703125	689.1994018554688	273.3274230957031	1030.787841796875	652.1064453125	272.9195861816406	1069.529663085938	727.894287109375	640.390380859375	1033.082397460938	670.5159301757813	635.571533203125	1077.978393554688	713.950439453125	750.2870483398438	1032.8125	664.6962890625	746.1326293945313	1080.407104492188	776.2478637695313	456.5733032226563	1092.342041015625	700.794677734375	115.7717208862305	1412.699096679688	723.9469604492188	122.5630340576172	1325.015380859375	853.8114624023438	1036.559692382813	1340.790771484375	775.2696533203125	940.6351928710938	1392.644775390625	631.710205078125	42.50378799438477	1368.84521484375	661.02099609375	65.41036224365234	1410.508666992188	641.419921875	91.91093444824219	1367.589477539063	721.6099853515625	491.3722534179688	1402.763061523438	784.5265502929688	1094.927856445313	1386.04052734375	730.2755126953125	550.8966064453125	1399.400634765625	729.3455200195313	533.8027954101563	1270.13427734375	857.3936157226563	66.29081726074219	1331.524658203125	859.6874389648438	72.35247039794922	1370.780517578125	819.3131103515625	49.22212982177734	1443.638061523438	687.7691040039063	1072.906494140625	1275.146362304688	685.0841064453125	206.7772674560547	1412.785766601563	650.6294555664063	206.9397125244141	1374.512451171875	677.156494140625	291.2436218261719	1417.25439453125	642.3788452148438	287.2935791015625	1376.689697265625	744.3056640625	647.3516235351563	1413.466796875	679.6514282226563	650.1578369140625	1377.009887695313	742.4092407226563	758.0628051757813	1420.036987304688	682.8659057617188	760.4365234375	1382.098999023438	776.1288452148438	457.5549011230469	1356.412719726563	
21	0.1333333333333333	708.8005981445313	108.7502899169922	1042.798706054688	730.156494140625	121.0000381469727	1128.539184570313	853.82470703125	1036.68896484375	1105.48486328125	764.6375732421875	948.6046752929688	1048.947143554688	638.0601806640625	43.15554428100586	1078.503540039063	672.593017578125	64.72499847412109	1038.626220703125	649.4718017578125	93.06459045410156	1082.03369140625	717.8875122070313	487.0597534179688	1038.749389648438	763.315185546875	1106.883911132813	1065.832275390625	724.4014282226563	557.992431640625	1042.75634765625	716.9165649414063	535.5079956054688	1174.798950195313	864.64501953125	63.8224983215332	1122.559814453125	878.8361206054688	65.25209808349609	1077.676147460938	831.7154541015625	49.59432601928711	1012.385681152344	684.44384765625	1074.74169921875	1177.485961914063	699.5761108398438	194.0617218017578	1038.499267578125	660.5694580078125	192.2666473388672	1076.313720703125	689.2134399414063	273.323486328125	1030.787841796875	652.1163940429688	272.9238891601563	1069.531005859375	727.930419921875	640.3856201171875	1033.0830078125	670.5464477539063	635.582763671875	1077.978149414063	714.0004272460938	750.2805786132813	1032.830444335938	664.7393188476563	746.1336059570313	1080.408569335938	776.2628173828125	456.578369140625	1092.34619140625	700.7957153320313	115.7643280029297	1412.708129882813	723.939208984375	122.5585327148438	1325.007690429688	853.8563842773438	1036.554565429688	1340.817504882813	775.3119506835938	940.6307983398438	1392.652099609375	631.7041015625	42.52649688720703	1368.853637695313	661.0311279296875	65.40849304199219	1410.485961914063	641.4121704101563	91.91950988769531	1367.5830078125	721.6171264648438	491.3629150390625	1402.773559570313	784.5685424804688	1094.931884765625	1386.045776367188	730.2798461914063	550.9024658203125	1399.418212890625	729.3281860351563	533.8082885742188	1270.130981445313	857.3998413085938	66.29156494140625	1331.5244140625	859.68408203125	72.35298156738281	1370.778686523438	819.3053588867188	49.22091293334961	1443.626586914063	687.8076782226563	1072.908569335938	1275.16943359375	685.08056640625	206.7808990478516	1412.790283203125	650.6265258789063	206.9416046142578	1374.514282226563	677.1531982421875	291.2514343261719	1417.268676757813	642.3836059570313	287.2969055175781	1376.691284179688	744.3230590820313	647.3484497070313	1413.471435546875	679.6698608398438	650.15771484375	1377.013671875	742.4285888671875	758.0599365234375	1420.052490234375	682.8920288085938	760.4398193359375	1382.108642578125	776.132568359375	457.5509948730469	1356.421875	
22	0.14	708.7862548828125	108.7630157470703	1042.803955078125	730.1581420898438	121.0147399902344	1128.539672851563	853.8638916015625	1036.680419921875	1105.499145507813	764.688232421875	948.598388671875	1048.967041015625	638.0540161132813	43.16902923583984	1078.484619140625	672.5838012695313	64.72730255126953	1038.630004882813	649.475341796875	93.06215667724609	1082.03125	717.916015625	487.0558166503906	1038.760009765625	763.3656005859375	1106.862670898438	1065.8603515625	724.41796875	557.9811401367188	1042.765747070313	716.9426879882813	535.5051879882813	1174.814086914063	864.6491088867188	63.81977081298828	1122.560913085938	878.8275756835938	65.24810028076172	1077.677368164063	831.7166748046875	49.60158538818359	1012.386413574219	684.4866333007813	1074.741333007813	1177.495361328125	699.58056640625	194.0627899169922	1038.5068359375	660.5730590820313	192.2663879394531	1076.302734375	689.2276611328125	273.3267822265625	1030.791625976563	652.1302490234375	272.9310913085938	1069.53369140625	727.9563598632813	640.3900146484375	1033.098022460938	670.5745849609375	635.5742797851563	1077.997436523438	714.044921875	750.2933959960938	1032.830322265625	664.7779541015625	746.13427734375	1080.415771484375	776.281494140625	456.5718383789063	1092.346435546875	700.7991943359375	115.7644577026367	1412.701904296875	723.9338989257813	122.5594024658203	1325.018188476563	853.8973999023438	1036.545776367188	1340.844848632813	775.3426513671875	940.6229858398438	1392.680786132813	631.7031860351563	42.52528762817383	1368.845825195313	661.0301513671875	65.41058349609375	1410.49853515625	641.4129638671875	91.91971588134766	1367.58154296875	721.6082153320313	491.3573913574219	1402.768920898438	784.6197509765625	1094.918823242188	1386.06640625	730.2907104492188	550.8978271484375	1399.431396484375	729.3411865234375	533.8160400390625	1270.13671875	857.385498046875	66.29294586181641	1331.5263671875	859.6859741210938	72.35301208496094	1370.788696289063	819.3099975585938	49.22344207763672	1443.634643554688	687.8579711914063	1072.909423828125	1275.189331054688	685.0797729492188	206.7779998779297	1412.786254882813	650.6357421875	206.9465484619141	1374.519775390625	677.1613159179688	291.2441101074219	1417.267578125	642.4006958007813	287.2953186035156	1376.6962890625	744.347412109375	647.3433227539063	1413.47998046875	679.6807861328125	650.160400390625	1377.027709960938	742.455078125	758.0523071289063	1420.057373046875	682.9247436523438	760.4415283203125	1382.12841796875	776.1421508789063	457.5523376464844	1356.435791015625	
